<svg width="24" height="24" viewBox="0 0 24 24" fill="none" xmlns="http://www.w3.org/2000/svg">
<path d="M19 10V19C19 20.1046 18.1046 21 17 21H7C5.89543 21 5 20.1046 5 19V5C5 3.89543 5.89543 3 7 3H12.1716C12.702 3 13.2107 3.21071 13.5858 3.58579L14 4" stroke="black" stroke-width="1.5" stroke-linecap="round"/>
<path d="M11.4664 11.1344L11 13L12.8656 12.5336C12.9536 12.5116 13.0338 12.4662 13.0979 12.4021L20.1464 5.35355C20.3417 5.15829 20.3417 4.84171 20.1464 4.64645L19.3536 3.85355C19.1583 3.65829 18.8417 3.65829 18.6464 3.85355L11.5979 10.9021C11.5338 10.9662 11.4884 11.0464 11.4664 11.1344Z" stroke="black" stroke-width="1.5" stroke-linejoin="round"/>
</svg>
